<?xml version="1.0" standalone="no"?>
<!DOCTYPE svg PUBLIC "-//W3C//DTD SVG 20010904//EN"
 "http://www.w3.org/TR/2001/REC-SVG-20010904/DTD/svg10.dtd">
<svg version="1.0" xmlns="http://www.w3.org/2000/svg"
 width="256.000000pt" height="256.000000pt" viewBox="0 0 256.000000 256.000000"
 preserveAspectRatio="xMidYMid meet">
<metadata>
Created by potrace 1.14, written by Peter Selinger 2001-2017
</metadata>
<g transform="translate(0.000000,256.000000) scale(0.100000,-0.100000)"
fill="#000000" stroke="none">
<path d="M1395 2452 c-32 -20 -115 -109 -115 -123 0 -23 -22 -4 -55 45 -38 58
-76 89 -102 84 -9 -2 -33 -33 -53 -70 -20 -37 -39 -71 -43 -74 -3 -3 -21 5
-39 19 -69 53 -170 83 -181 54 -2 -7 3 -44 13 -82 9 -39 16 -72 14 -74 -1 -1
-37 13 -79 34 -62 30 -88 37 -145 38 -38 1 -74 -3 -80 -9 -6 -6 -19 -35 -30
-65 -16 -42 -20 -79 -20 -171 0 -67 5 -128 11 -142 10 -22 7 -34 -24 -93 -31
-59 -66 -146 -67 -164 0 -3 13 -4 29 -1 25 3 32 12 51 62 48 128 167 264 289
329 69 36 81 38 81 11 0 -35 43 -44 210 -43 170 0 267 15 371 57 73 29 86 26
198 -48 101 -67 175 -151 222 -250 21 -46 39 -90 39 -98 0 -8 16 -22 35 -31
33 -16 35 -16 35 1 0 24 -26 94 -56 154 -23 45 -24 54 -12 76 9 18 13 66 13
161 -1 124 -3 140 -25 186 l-25 50 -58 3 c-72 4 -156 -23 -247 -77 -36 -22
-69 -36 -74 -31 -4 4 -11 73 -15 152 -7 158 -10 164 -66 130z m17 -323 c-13
-11 -126 -38 -210 -50 -100 -14 -280 -8 -292 10 -4 7 -10 49 -14 94 -3 45 -10
97 -15 115 -6 20 -6 32 0 32 22 0 79 -47 105 -87 16 -24 36 -42 44 -40 8 1 33
41 57 90 23 48 47 87 53 87 6 0 25 -21 43 -47 85 -123 104 -130 141 -50 14 28
38 65 53 82 l28 30 7 -130 c4 -72 4 -133 0 -136z m-727 103 c56 -24 145 -74
145 -82 0 -3 -15 -11 -34 -18 -54 -20 -158 -91 -204 -140 -23 -25 -45 -42 -48
-39 -22 22 -10 229 17 279 12 23 69 23 124 0z m1147 -34 c15 -29 25 -278 10
-278 -5 0 -26 20 -46 44 -40 49 -110 103 -187 146 l-52 28 27 17 c50 33 141
65 188 65 39 0 50 -4 60 -22z"/>
<path d="M1595 1774 c-35 -22 -48 -24 -100 -20 -33 3 -73 7 -90 8 -24 2 -31
-1 -33 -18 -4 -31 47 -49 140 -49 69 0 80 3 120 30 77 55 43 100 -37 49z"/>
<path d="M855 1729 c-49 -23 -103 -24 -152 -4 -38 16 -63 7 -63 -22 0 -21 78
-53 131 -53 91 0 187 51 159 85 -16 19 -25 18 -75 -6z"/>
<path d="M408 1623 c-24 -6 -29 -40 -30 -217 0 -142 3 -168 22 -221 32 -87 91
-143 180 -170 19 -6 13 3 -27 42 -58 56 -90 113 -109 193 -17 72 -17 73 6 50
38 -38 140 -15 115 26 -9 13 -25 17 -74 17 l-64 0 6 121 c3 67 9 131 13 144 6
22 0 25 -38 15z"/>
<path d="M1914 1593 c4 -16 9 -66 13 -113 4 -69 1 -102 -16 -170 -32 -127 -80
-196 -201 -293 l-35 -27 52 19 c129 47 187 106 231 240 18 54 22 88 22 203 l0
137 -30 16 c-40 21 -43 19 -36 -12z"/>
<path d="M1830 1507 c-27 -9 -35 -17 -35 -37 0 -31 28 -37 79 -16 38 16 49 49
20 60 -20 8 -22 7 -64 -7z"/>
<path d="M452 1451 c-8 -5 -12 -17 -10 -27 2 -15 14 -20 54 -22 58 -3 87 16
64 43 -14 16 -86 20 -108 6z"/>
<path d="M1009 1367 c6 -8 8 -17 4 -20 -12 -12 -23 -7 -24 11 0 13 -3 11 -12
-7 -10 -20 -8 -26 12 -42 17 -14 27 -16 42 -9 33 18 19 80 -19 80 -11 0 -12
-3 -3 -13z"/>
<path d="M1255 1370 c11 -17 -5 -32 -21 -19 -11 9 -14 7 -14 -14 0 -29 29 -51
54 -41 22 8 31 51 16 69 -14 17 -45 21 -35 5z"/>
<path d="M1774 1365 c-13 -33 4 -45 60 -45 46 0 56 3 61 20 10 32 -3 40 -61
40 -39 0 -56 -4 -60 -15z"/>
<path d="M1741 1257 c-38 -38 31 -71 106 -51 28 8 39 35 18 50 -20 15 -110 15
-124 1z"/>
<path d="M472 1223 c3 -26 6 -28 54 -31 38 -2 56 2 68 14 28 28 13 39 -58 42
l-67 3 3 -28z"/>
<path d="M978 1193 c7 -3 16 -2 19 1 4 3 -2 6 -13 5 -11 0 -14 -3 -6 -6z"/>
<path d="M1278 1193 c7 -3 16 -2 19 1 4 3 -2 6 -13 5 -11 0 -14 -3 -6 -6z"/>
<path d="M1118 1182 c-31 -6 -19 -22 17 -22 20 0 35 5 35 12 0 6 -3 8 -7 5 -3
-4 -11 -3 -17 1 -6 5 -19 7 -28 4z"/>
<path d="M580 961 c25 -17 60 -36 78 -42 17 -6 32 -14 32 -17 -1 -4 -25 -24
-54 -44 -62 -43 -91 -93 -90 -158 0 -71 21 -125 64 -170 24 -25 37 -47 33 -56
-9 -23 17 -236 33 -265 16 -31 58 -48 94 -39 19 5 34 -1 63 -26 47 -39 103
-52 144 -31 41 22 59 46 78 104 16 49 20 53 65 68 27 9 70 15 97 13 48 -3 48
-4 80 -63 48 -90 80 -115 151 -115 51 0 62 4 85 28 15 16 27 39 27 54 0 55 6
58 99 58 84 0 215 26 264 51 88 46 177 142 177 191 -1 18 -16 32 -78 66 -42
23 -112 68 -154 100 -68 50 -79 63 -94 107 -19 60 -35 79 -93 113 l-44 25 58
29 c31 16 55 31 54 33 -11 10 -100 -24 -116 -43 -10 -13 -40 -28 -68 -36 l-50
-12 49 -13 c110 -27 156 -70 156 -143 0 -27 -6 -63 -14 -82 -16 -37 -60 -76
-87 -76 -23 0 -23 -1 -3 45 19 46 21 110 4 130 -7 8 -22 15 -35 15 -28 0 -50
25 -65 75 l-12 40 -336 0 c-369 0 -419 6 -476 55 -17 15 -49 32 -71 38 -22 6
-51 14 -65 17 -18 5 -12 -2 20 -24z m230 -101 c0 -5 -6 -31 -12 -56 -11 -38
-19 -50 -45 -61 -18 -7 -40 -24 -48 -37 -15 -22 -14 -28 9 -83 21 -50 23 -60
10 -73 -12 -13 -18 -12 -49 4 -59 32 -91 135 -61 197 18 38 76 83 133 104 46
17 63 18 63 5z m590 -138 l98 -4 6 -57 c4 -31 1 -92 -5 -136 -8 -61 -8 -102 2
-170 15 -110 7 -162 -26 -177 -40 -18 -76 2 -112 62 -42 69 -43 111 -5 139 22
16 25 23 16 37 -16 28 -27 27 -79 -8 -44 -29 -58 -33 -117 -33 -59 0 -70 3
-95 28 -49 46 -83 29 -61 -30 9 -24 7 -43 -10 -99 -34 -110 -82 -143 -132 -89
-25 26 -26 38 -46 393 l-7 113 56 -7 c79 -9 137 2 193 39 27 17 69 39 94 47
45 15 45 15 88 -15 40 -28 52 -30 142 -33z"/>
</g>
</svg>
